<svg xmlns="http://www.w3.org/2000/svg" width="201.46" height="41.83" viewBox="0 0 201.46 41.83"><defs><style>.cls-1{fill:#0dc2fb;}</style></defs><g id="レイヤー_2" data-name="レイヤー 2"><g id="レイヤー_8" data-name="レイヤー 8"><path class="cls-1" d="M43.09,40.22a.52.52,0,0,1-.52-.52l.23-14.39L42.57,11a.52.52,0,0,1,.52-.52h7.63a.52.52,0,0,1,.52.52L51,15.49c2.31-3.52,6.29-5.25,10.63-5.25a9.29,9.29,0,0,1,1.33.11.69.69,0,0,1,.52.64v5.37a.47.47,0,0,1-.52.46,6.82,6.82,0,0,0-1.1-.06c-6.13,0-10.69,3.41-10.63,10.23V39.7a.52.52,0,0,1-.52.52Z"/><path class="cls-1" d="M81,40.8c-8.67,0-14.21-3.53-14.5-10.17a.52.52,0,0,1,.52-.52h7.39a.52.52,0,0,1,.52.52c.23,3.35,2.43,4.8,6.47,4.8,3.41,0,5.26-1.33,5.26-3.64,0-5.67-19.47-.18-19.47-12.66,0-6.18,5-9.47,13-9.47,7.8,0,13.06,3.12,13.58,9.36a.45.45,0,0,1-.47.52h-7a.62.62,0,0,1-.58-.52c-.46-2.54-2.08-4.1-5.61-4.1-2.83,0-4.62,1-4.62,3.58,0,5.66,19.47-.12,19.47,12.53C94.93,37.27,89,40.8,81,40.8Z"/><path class="cls-1" d="M125.09,40.46a.52.52,0,0,1-.52-.52l.23-17.79H107.12l.23,17.79a.52.52,0,0,1-.52.52h-8a.52.52,0,0,1-.52-.52l.29-19.7L98.34,2.93c0-3.3,1.14-2.92,2.51-2.91h6a.52.52,0,0,1,.52.52l-.17,15.08h17.56L124.57.54a.52.52,0,0,1,.52-.52h8a.52.52,0,0,1,.52.52l-.29,19.7.29,19.7a.52.52,0,0,1-.52.52Z"/><path class="cls-1" d="M148.48,41.75c-6.52,0-10.55-3.68-10.5-11l.05-6.29,0-12.22a.54.54,0,0,1,.55-.52l8,.06a.53.53,0,0,1,.53.53l-.27,12.22,0,4.49a6.44,6.44,0,0,0,1.72,4.6,5.39,5.39,0,0,0,3.92,1.61,4.81,4.81,0,0,0,4.79-2.74,6.78,6.78,0,0,0,.89-3.2l.13-4.68,0-12.22a.53.53,0,0,1,.54-.52l7.11.05c.3,0,1,.21,1,.5l-.27,9.78,0,9.32c.08,11-10.45,10.31-8.93,10.31l-2.94,0"/><path class="cls-1" d="M17.86,8.08c-.07.05-9.24,31.3-9.32,31.51a1.73,1.73,0,0,1-.78.71,6.46,6.46,0,0,1-1,.15H4.51c-5.15,0-5.64-2.82-2.74-10.06L12.15.53A.8.8,0,0,1,12.84,0h10.8a.82.82,0,0,1,.7.52l13.4,39.4a.36.36,0,0,1-.35.52h-8a.85.85,0,0,1-.43-.17.89.89,0,0,1-.26-.35"/><path class="cls-1" d="M185.71,41.82h-1.38c-10.13,0-12.06-2.19-12.81-10.67l-.07-9.62-.18-19.7a.52.52,0,0,1,.52-.52h7.66a.52.52,0,0,1,.52.52l-.05,11.82c2.08-2.54,5-2.23,8.69-2.23,8.41,0,12.85,6.7,12.85,15.37s-4.9,15-13,15M186,36.43c4.38.11,6.62-3.3,6.62-9.3,0-6.53-2.3-9.88-6.45-9.83s-6.45,3.12-6.51,9.25C179.63,32.9,181.87,36.37,186,36.43Z"/></g></g></svg>