<svg xmlns="http://www.w3.org/2000/svg" width="320.71" height="66.59" viewBox="0 0 320.71 66.59"><defs><style>.cls-1{fill:#fff;}</style></defs><g id="レイヤー_2" data-name="レイヤー 2"><g id="レイヤー_8" data-name="レイヤー 8"><path class="cls-1" d="M68.6,64a.83.83,0,0,1-.83-.83l.37-22.9-.37-22.81a.82.82,0,0,1,.83-.82H80.74a.82.82,0,0,1,.83.82l-.37,7.18c3.68-5.61,10-8.37,16.92-8.37a15.51,15.51,0,0,1,2.12.18,1.07,1.07,0,0,1,.82,1V26a.75.75,0,0,1-.82.74,11.47,11.47,0,0,0-1.75-.09c-9.75,0-17,5.42-16.92,16.28V63.2a.83.83,0,0,1-.83.83Z"/><path class="cls-1" d="M129,65c-13.8,0-22.62-5.61-23.08-16.19a.82.82,0,0,1,.82-.83h11.78a.82.82,0,0,1,.82.83c.37,5.34,3.87,7.63,10.3,7.63,5.43,0,8.37-2.11,8.37-5.79,0-9-31-.28-31-20.14,0-9.84,7.91-15.08,20.69-15.08,12.42,0,20.79,5,21.61,14.9a.69.69,0,0,1-.73.82H137.33a1,1,0,0,1-.92-.82c-.74-4.05-3.31-6.53-8.92-6.53-4.51,0-7.36,1.65-7.36,5.7,0,9,31-.19,31,20C151.12,59.34,141.74,65,129,65Z"/><path class="cls-1" d="M199.13,64.41a.83.83,0,0,1-.83-.83l.37-28.33H170.53l.37,28.33a.83.83,0,0,1-.83.83H157.38a.83.83,0,0,1-.83-.83L157,32.22l-.46-27.55c0-5.27,1.81-4.66,4-4.64h9.53a.83.83,0,0,1,.83.83l-.28,24h28l-.28-24a.83.83,0,0,1,.83-.83h12.69a.83.83,0,0,1,.83.83l-.46,31.36.46,31.36a.83.83,0,0,1-.83.83Z"/><path class="cls-1" d="M236.37,66.47c-10.37-.08-16.8-5.87-16.72-17.54l.08-10,0-19.46a.83.83,0,0,1,.86-.82l12.75.09a.83.83,0,0,1,.85.84L233.71,39l-.05,7.16a10.22,10.22,0,0,0,2.74,7.31,8.57,8.57,0,0,0,6.25,2.56c4,0,5.95-1.49,7.62-4.36a10.79,10.79,0,0,0,1.42-5.09l.2-7.45,0-19.45a.85.85,0,0,1,.86-.83L264,19c.47,0,1.64.33,1.63.8l-.42,15.56-.05,14.84c.12,17.43-16.64,16.41-14.22,16.42l-4.67-.06"/><path class="cls-1" d="M28.43,12.86C28.33,13,13.72,62.69,13.6,63a2.71,2.71,0,0,1-1.25,1.12,10.6,10.6,0,0,1-1.66.24H7.18c-8.2,0-9-4.49-4.36-16L19.34.84A1.27,1.27,0,0,1,20.44,0h17.2a1.27,1.27,0,0,1,1.1.82L60.08,63.56a.57.57,0,0,1-.55.83H46.74a1.35,1.35,0,0,1-.68-.26,1.28,1.28,0,0,1-.42-.57"/><path class="cls-1" d="M295.64,66.58l-2.2,0c-16.13,0-19.2-3.49-20.39-17l-.12-15.32L272.65,2.9a.83.83,0,0,1,.83-.83h12.2a.83.83,0,0,1,.82.83l-.08,18.82c3.3-4,8-3.55,13.84-3.55,13.39,0,20.45,10.67,20.45,24.46s-7.79,23.82-20.63,23.82M296.13,58c7,.18,10.55-5.24,10.55-14.81,0-10.39-3.67-15.72-10.28-15.63s-10.27,5-10.36,14.71C286,52.38,289.53,57.9,296.13,58Z"/></g></g></svg>